<svg width="1440" height="308" viewBox="0 0 1440 308" fill="none" xmlns="http://www.w3.org/2000/svg">
<rect x="-1" width="1443" height="220" fill="#50A7DA"/>
<ellipse cx="109.794" cy="55.9039" rx="109.794" ry="55.9039" transform="matrix(1 0 0 -1 -4 290.278)" fill="white"/>
<ellipse cx="109.794" cy="55.9039" rx="109.794" ry="55.9039" transform="matrix(1 0 0 -1 146.961 307.749)" fill="white"/>
<ellipse cx="109.794" cy="55.9039" rx="109.794" ry="55.9039" transform="matrix(1 0 0 -1 332.234 272.808)" fill="white"/>
<ellipse cx="109.794" cy="55.9039" rx="109.794" ry="55.9039" transform="matrix(1 0 0 -1 517.52 290.278)" fill="white"/>
<ellipse cx="109.794" cy="55.9039" rx="109.794" ry="55.9039" transform="matrix(1 0 0 -1 702.805 272.809)" fill="white"/>
<ellipse cx="109.794" cy="55.9039" rx="109.794" ry="55.9039" transform="matrix(1 0 0 -1 888.074 307.749)" fill="white"/>
<ellipse cx="109.794" cy="55.9039" rx="109.794" ry="55.9039" transform="matrix(1 0 0 -1 1039.04 290.278)" fill="white"/>
<ellipse cx="109.794" cy="55.9039" rx="109.794" ry="55.9039" transform="matrix(1 0 0 -1 1224.32 272.809)" fill="white"/>
</svg>
