<svg width="27" height="28" viewBox="0 0 27 28" fill="none" xmlns="http://www.w3.org/2000/svg">
<g clip-path="url(#clip0_697_20755)">
<path d="M27 14.0996C27 6.64381 20.9558 0.599609 13.5 0.599609C6.0442 0.599609 0 6.64381 0 14.0996C0 20.8378 4.93678 26.4229 11.3906 27.4356V18.002H7.96289V14.0996H11.3906V11.1254C11.3906 7.74195 13.4061 5.87305 16.4898 5.87305C17.9668 5.87305 19.5117 6.13672 19.5117 6.13672V9.45899H17.8095C16.1324 9.45899 15.6094 10.4996 15.6094 11.5673V14.0996H19.3535L18.755 18.002H15.6094V27.4356C22.0632 26.4229 27 20.8379 27 14.0996Z" fill="#1877F2"/>
<path d="M18.755 18.002L19.3535 14.0996H15.6094V11.5673C15.6094 10.4995 16.1324 9.45898 17.8095 9.45898H19.5117V6.13672C19.5117 6.13672 17.9668 5.87305 16.4897 5.87305C13.4061 5.87305 11.3906 7.74195 11.3906 11.1254V14.0996H7.96289V18.002H11.3906V27.4356C12.0884 27.545 12.7937 27.5998 13.5 27.5996C14.2063 27.5998 14.9116 27.545 15.6094 27.4356V18.002H18.755Z" fill="white"/>
</g>
<defs>
<clipPath id="clip0_697_20755">
<rect width="27" height="27" fill="white" transform="translate(0 0.599609)"/>
</clipPath>
</defs>
</svg>
