<svg width="33" height="33" viewBox="0 0 33 33" fill="none" xmlns="http://www.w3.org/2000/svg">
<path d="M29.5753 13.4896H28.5013V13.4342H16.5013V18.7676H24.0366C22.9373 21.8722 19.9833 24.1009 16.5013 24.1009C12.0833 24.1009 8.5013 20.5189 8.5013 16.1009C8.5013 11.6829 12.0833 8.10091 16.5013 8.10091C18.5406 8.10091 20.396 8.87024 21.8086 10.1269L25.58 6.35558C23.1986 4.13624 20.0133 2.76758 16.5013 2.76758C9.13797 2.76758 3.16797 8.73758 3.16797 16.1009C3.16797 23.4642 9.13797 29.4342 16.5013 29.4342C23.8646 29.4342 29.8346 23.4642 29.8346 16.1009C29.8346 15.2069 29.7426 14.3342 29.5753 13.4896Z" fill="#FFC107"/>
<path d="M4.70312 9.89491L9.08379 13.1076C10.2691 10.1729 13.1398 8.10091 16.4991 8.10091C18.5385 8.10091 20.3938 8.87024 21.8065 10.1269L25.5778 6.35558C23.1965 4.13624 20.0111 2.76758 16.4991 2.76758C11.3778 2.76758 6.93646 5.65891 4.70312 9.89491Z" fill="#FF3D00"/>
<path d="M16.4989 29.4334C19.9429 29.4334 23.0722 28.1154 25.4382 25.9721L21.3116 22.4801C19.9279 23.5323 18.2372 24.1014 16.4989 24.1001C13.0309 24.1001 10.0862 21.8887 8.97691 18.8027L4.62891 22.1527C6.83557 26.4707 11.3169 29.4334 16.4989 29.4334Z" fill="#4CAF50"/>
<path d="M29.574 13.487H28.5V13.4316H16.5V18.765H24.0353C23.5095 20.2426 22.5622 21.5338 21.3107 22.479L21.3127 22.4776L25.4393 25.9696C25.1473 26.235 29.8333 22.765 29.8333 16.0983C29.8333 15.2043 29.7413 14.3316 29.574 13.487Z" fill="#1976D2"/>
</svg>
